<?xml version="1.0" standalone="no"?>
<!DOCTYPE svg PUBLIC "-//W3C//DTD SVG 20010904//EN"
 "http://www.w3.org/TR/2001/REC-SVG-20010904/DTD/svg10.dtd">
<svg version="1.0" xmlns="http://www.w3.org/2000/svg"
 width="512.000000pt" height="512.000000pt" viewBox="0 0 512.000000 512.000000"
 preserveAspectRatio="xMidYMid meet">
<metadata>
Created by potrace 1.14, written by Peter Selinger 2001-2017
</metadata>
<g transform="translate(0.000000,512.000000) scale(0.100000,-0.100000)"
fill="#000000" stroke="none">
<path d="M1555 4429 c-111 -6 -155 -23 -214 -81 -55 -53 -81 -121 -82 -214 -1
-43 -1 -85 0 -91 1 -10 33 -13 125 -13 l124 0 -1 65 c0 36 4 70 10 76 14 14
869 17 883 3 5 -5 10 -40 11 -77 2 -65 3 -67 28 -68 14 0 70 -1 123 -2 l97 -2
3 35 c5 64 -10 174 -31 216 -22 45 -81 103 -133 130 -24 13 -62 19 -138 21
-200 7 -705 8 -805 2z"/>
<path d="M234 3853 c-18 -9 -42 -33 -53 -54 -22 -38 -22 -45 -19 -416 l3 -378
27 -59 c34 -70 127 -165 215 -218 148 -88 418 -165 712 -203 18 -2 50 -7 70
-9 45 -7 114 -13 211 -21 l75 -6 19 58 c68 213 272 350 500 337 197 -11 379
-158 437 -352 12 -42 13 -43 53 -41 40 2 76 22 76 42 0 31 145 223 239 317
231 230 492 355 826 395 11 1 46 3 77 4 l57 1 -2 264 c-3 379 29 354 -442 354
l-335 1 0 -152 c-1 -84 -1 -190 -2 -237 0 -112 -20 -171 -75 -225 -80 -79 -40
-76 -968 -73 -782 3 -822 4 -855 22 -42 23 -93 75 -117 118 -16 29 -18 66 -21
291 l-3 257 -337 -1 c-281 -1 -342 -3 -368 -16z"/>
<path d="M1100 3634 l0 -236 29 -29 29 -29 801 0 800 0 28 24 28 24 3 241 3
240 -860 1 -861 0 0 -236z"/>
<path d="M3540 3070 c-246 -48 -456 -159 -629 -330 -478 -474 -470 -1249 18
-1719 169 -162 419 -286 642 -318 64 -9 307 -10 364 -1 410 64 750 321 916
693 79 176 109 326 104 520 -5 188 -25 286 -93 445 -66 157 -128 247 -262 380
-177 177 -368 279 -617 329 -116 24 -327 24 -443 1z m309 -631 c64 -17 172
-46 241 -64 69 -18 186 -50 260 -69 74 -20 157 -42 183 -48 26 -6 59 -22 73
-34 l24 -23 0 -224 c0 -223 0 -224 23 -234 22 -10 22 -14 22 -182 1 -94 -2
-171 -5 -171 -3 0 -14 6 -25 14 -47 32 -99 55 -109 47 -11 -8 -105 -61 -109
-61 -1 0 -2 77 -2 171 0 169 0 172 23 182 21 10 22 14 22 167 l0 157 -53 -14
-52 -15 0 -211 0 -212 -27 -27 c-14 -16 -35 -28 -45 -29 -10 0 -25 -2 -33 -4
-8 -2 -33 -6 -55 -10 -22 -3 -56 -10 -75 -15 -19 -5 -55 -12 -80 -15 -25 -3
-61 -10 -80 -15 -19 -5 -57 -12 -85 -16 -27 -3 -59 -8 -70 -10 -25 -5 -182 -5
-215 0 -98 16 -171 28 -208 37 -23 5 -59 12 -80 15 -20 3 -56 10 -80 15 -23 5
-59 12 -80 15 -49 7 -85 34 -92 70 -3 16 -6 115 -5 221 l0 192 -107 28 c-60
15 -117 35 -128 43 -11 9 -23 32 -26 52 -9 53 21 77 137 108 52 13 99 25 104
26 14 2 542 144 595 159 67 20 91 18 219 -16z"/>
<path d="M3470 2249 c-319 -86 -306 -76 -159 -114 68 -18 186 -49 263 -69
l138 -36 227 59 c124 33 241 64 260 69 l35 8 -30 11 c-37 14 -486 133 -499
132 -6 0 -111 -27 -235 -60z"/>
<path d="M3218 1987 c-9 -27 -3 -282 7 -282 9 -1 31 -5 105 -20 14 -3 41 -8
60 -11 19 -3 53 -9 75 -14 188 -41 281 -40 520 5 105 20 197 38 205 40 13 4
16 27 15 139 0 74 -3 138 -7 141 -4 4 -111 -21 -238 -54 -127 -34 -240 -61
-251 -61 -10 0 -63 12 -117 26 -53 14 -104 28 -112 30 -54 13 -244 66 -250 69
-5 3 -10 -1 -12 -8z"/>
<path d="M1879 2716 c-97 -25 -181 -95 -223 -185 -31 -69 -30 -208 3 -275 28
-57 93 -126 142 -152 89 -46 203 -50 295 -9 56 25 130 92 152 139 6 14 18 38
25 53 7 15 12 63 11 112 0 103 -24 161 -92 229 -38 38 -107 79 -152 89 -40 10
-120 9 -161 -1z"/>
<path d="M322 2063 c3 -469 5 -532 20 -563 23 -51 75 -104 128 -131 l45 -24
998 -2 c932 -1 998 0 991 15 -41 98 -83 255 -99 377 -21 162 9 453 60 579 6
13 4 17 -5 14 -7 -2 -21 -31 -30 -64 -23 -82 -51 -132 -110 -197 -191 -210
-512 -216 -710 -14 -52 53 -113 162 -130 235 -9 36 -15 42 -38 43 -89 4 -275
25 -472 55 -197 30 -462 108 -583 172 -29 15 -56 28 -60 30 -4 2 -7 -234 -5
-525z"/>
</g>
</svg>
